<svg id="Layer_5" enable-background="new 0 0 64 64" height="512" viewBox="0 0 64 64" width="512" xmlns="http://www.w3.org/2000/svg"><path d="m44 17h2v2h-2z"/><path d="m48 17h2v2h-2z"/><path d="m52 17h2v2h-2z"/><path d="m45 57h8v2h-8z"/><path d="m58 13h-14c0-6.617-5.383-12-12-12-3.996 0-7.532 1.971-9.715 4.984-1.334-.635-2.794-.984-4.285-.984-4.816 0-8.887 3.402-9.805 8.041-4.035.405-7.195 3.82-7.195 7.959 0 4.411 3.589 8 8 8h26v9h-12.75c-1.639-4.216-5.668-7-10.25-7-6.065 0-11 4.935-11 11s4.935 11 11 11c4.581 0 8.611-2.784 10.25-7h12.75v12c0 2.757 2.243 5 5 5h18c2.757 0 5-2.243 5-5v-40c0-2.757-2.243-5-5-5zm0 2c1.654 0 3 1.346 3 3v3h-24v-3c0-1.654 1.346-3 3-3zm-49 12c-3.309 0-6-2.691-6-6s2.691-6 6-6 6 2.691 6 6h2c0-3.991-2.941-7.299-6.767-7.895.856-3.542 4.028-6.105 7.767-6.105 1.127 0 2.233.244 3.252.697-.794 1.602-1.252 3.398-1.252 5.303h2c0-5.514 4.486-10 10-10s10 4.486 10 10h-2c-2.757 0-5 2.243-5 5v9zm11.807 17-.22.7c-1.184 3.768-4.635 6.3-8.587 6.3-4.962 0-9-4.038-9-9s4.038-9 9-9c3.952 0 7.403 2.532 8.587 6.3l.22.7h18.193v4zm18.193 2v3c0 1.103.897 2 2 2h16c1.103 0 2-.897 2-2v-22c0-1.103-.897-2-2-2h-16c-1.103 0-2 .897-2 2v11h-2v-15h24v30h-24v-7zm2 3v-22h16l.001 22zm17 12h-18c-1.654 0-3-1.346-3-3v-3h24v3c0 1.654-1.346 3-3 3z"/><path d="m55.293 30.293-2.269 2.269c-1.066-.967-2.475-1.562-4.024-1.562-3.309 0-6 2.691-6 6s2.691 6 6 6 6-2.691 6-6c0-1.035-.263-2.009-.726-2.86l2.433-2.433zm-2.293 6.707c0 2.206-1.794 4-4 4s-4-1.794-4-4 1.794-4 4-4c.997 0 1.899.38 2.6.986l-2.6 2.6-1.293-1.293-1.414 1.414 2.707 2.707 3.753-3.753c.15.421.247.867.247 1.339z"/><path d="m10 37c-2.757 0-5 2.243-5 5s2.243 5 5 5 5-2.243 5-5-2.243-5-5-5zm0 8c-1.654 0-3-1.346-3-3s1.346-3 3-3 3 1.346 3 3-1.346 3-3 3z"/><path d="m24 13h2c0-3.309 2.691-6 6-6v-2c-4.411 0-8 3.589-8 8z"/><path d="m5 21h2c0-1.103.897-2 2-2v-2c-2.206 0-4 1.794-4 4z"/><path d="m10 23h2v2h-2z"/><path d="m14 23h2v2h-2z"/><path d="m18 23h2v2h-2z"/><path d="m43 45h2v2h-2z"/><path d="m47 45h2v2h-2z"/><path d="m51 45h2v2h-2z"/></svg>