<?xml version="1.0" encoding="utf-8"?>
<!-- Generator: Adobe Illustrator 16.0.2, SVG Export Plug-In . SVG Version: 6.00 Build 0)  -->
<!DOCTYPE svg PUBLIC "-//W3C//DTD SVG 1.1//EN" "http://www.w3.org/Graphics/SVG/1.1/DTD/svg11.dtd">
<svg version="1.1" id="Слой_1" xmlns="http://www.w3.org/2000/svg" xmlns:xlink="http://www.w3.org/1999/xlink" x="0px" y="0px"
	 width="2834.65px" height="2834.65px" viewBox="0 0 2834.65 2834.65" enable-background="new 0 0 2834.65 2834.65"
	 xml:space="preserve">
<path d="M2277.478,452.18C2004.532,191.052,1652.85,60.488,1222.475,60.488H147.778v1693.604h606.261V607.661h468.436
	c246.699,0,446.796,77.456,600.331,232.271c153.487,154.864,230.278,354.34,230.278,598.382c0,246.7-76.127,446.789-228.333,600.324
	c-152.205,153.536-352.967,230.279-602.276,230.279H810.125l0,0H147.778v9.166v538.007h1074.696
	c427.765,0,778.782-131.181,1053.009-393.638c274.228-262.457,411.389-590.506,411.389-984.139
	C2686.872,1042.019,2550.375,713.308,2277.478,452.18z"/>
</svg>
