<?xml version="1.0" encoding="iso-8859-1"?>
<!-- Generator: Adobe Illustrator 19.0.0, SVG Export Plug-In . SVG Version: 6.00 Build 0)  -->
<svg version="1.1" id="Capa_1" xmlns="http://www.w3.org/2000/svg" xmlns:xlink="http://www.w3.org/1999/xlink" x="0px" y="0px"
	 viewBox="0 0 480 480" style="enable-background:new 0 0 480 480;" xml:space="preserve">
<g>
	<g>
		<path d="M456.004,224c-0.001,0-0.003,0-0.004,0H312c-4.417-0.001-7.999,3.579-8,7.996c0,0.001,0,0.003,0,0.004v30.656
			l-6.766-1.063c-0.409-0.063-0.821-0.094-1.234-0.094c-16.845-0.809-31.155,12.191-31.964,29.036s12.191,31.156,29.036,31.964
			c0.976,0.047,1.953,0.047,2.928,0c0.413,0,0.826-0.031,1.234-0.094l6.766-1.062V344h-40c-4.417-0.001-7.999,3.579-8,7.996
			c0,0.001,0,0.003,0,0.004v15c-0.871,8.837-8.741,15.294-17.578,14.422c-7.632-0.753-13.67-6.79-14.422-14.422v-15
			c0.001-4.417-3.579-7.999-7.996-8c-0.001,0-0.003,0-0.004,0h-40v-22.656l6.766,1.062c0.408,0.063,0.821,0.094,1.234,0.094
			c16.845,0.809,31.156-12.191,31.964-29.036c0.809-16.845-12.191-31.155-29.036-31.964c-0.975-0.047-1.953-0.047-2.928,0
			c-0.413,0-0.826,0.031-1.234,0.094L176,262.656V232c0.001-4.417-3.579-7.999-7.996-8c-0.001,0-0.003,0-0.004,0H24
			c-4.417-0.001-7.999,3.579-8,7.996c0,0.001,0,0.003,0,0.004v240c-0.001,4.417,3.579,7.999,7.996,8c0.001,0,0.003,0,0.004,0h432
			c4.417,0.001,7.999-3.579,8-7.996c0-0.001,0-0.003,0-0.004V232C464.001,227.583,460.421,224.001,456.004,224z M32,240h128v32
			c0,4.419,3.581,8.001,8,8.002c0.413,0,0.826-0.032,1.234-0.096l15.328-2.398c8.004-0.508,14.904,5.569,15.411,13.573
			c0.508,8.004-5.569,14.904-13.573,15.411c-0.612,0.039-1.226,0.039-1.838,0l-15.328-2.398c-4.366-0.681-8.458,2.306-9.139,6.672
			C160.032,311.174,160,311.587,160,312v32h-32v-7c-0.443-17.246-14.752-30.885-32-30.5c-17.248-0.385-31.557,13.254-32,30.5v7H32
			V240z M160,464H32V360h40c4.417,0.001,7.999-3.579,8-7.996c0-0.001,0-0.003,0-0.004v-15c0.444-8.408,7.589-14.883,16-14.5
			c8.411-0.383,15.556,6.092,16,14.5v15c-0.001,4.417,3.579,7.999,7.996,8c0.001,0,0.003,0,0.004,0h40v22.656l-6.766-1.063
			c-0.409-0.063-0.821-0.094-1.234-0.094c-16.845-0.809-31.155,12.191-31.964,29.036s12.191,31.156,29.036,31.964
			c0.975,0.047,1.953,0.047,2.928,0c0.413,0,0.826-0.031,1.234-0.094l6.766-1.062V464z M306.797,425.922
			c-1.774,1.521-2.795,3.741-2.797,6.078v32H176v-32c0.001-4.419-3.581-8.001-8-8.002c-0.413,0-0.826,0.032-1.234,0.096
			l-15.328,2.398c-8.004,0.508-14.904-5.569-15.411-13.573c-0.508-8.004,5.569-14.904,13.573-15.411
			c0.612-0.039,1.226-0.039,1.838,0l15.328,2.398c4.366,0.681,8.458-2.306,9.139-6.672c0.064-0.409,0.096-0.821,0.096-1.235v-32h32
			v7c0.849,17.673,15.864,31.312,33.537,30.463C258.022,396.672,271.208,383.485,272,367v-7h32v32c0,4.419,3.581,8.001,8,8.002
			c0.413,0,0.826-0.032,1.234-0.096l15.328-2.398c8.004-0.508,14.904,5.569,15.411,13.573c0.508,8.004-5.569,14.904-13.573,15.411
			c-0.612,0.039-1.226,0.039-1.838,0l-15.328-2.398C310.925,423.742,308.577,424.409,306.797,425.922z M448,464H320v-22.656
			l6.766,1.062c0.409,0.063,0.821,0.094,1.234,0.094c16.845,0.809,31.156-12.191,31.964-29.036
			c0.809-16.845-12.191-31.155-29.036-31.964c-0.975-0.047-1.953-0.047-2.928,0c-0.413,0-0.826,0.031-1.234,0.094L320,382.656V360
			h40c4.417,0.001,7.999-3.579,8-7.996c0-0.001,0-0.003,0-0.004v-15c0.871-8.837,8.741-15.294,17.578-14.422
			c7.632,0.753,13.67,6.79,14.422,14.422v15c-0.001,4.417,3.579,7.999,7.996,8c0.001,0,0.003,0,0.004,0h40V464z M448,344h-32v-7
			c-0.849-17.673-15.864-31.312-33.537-30.463C365.978,307.328,352.792,320.515,352,337v7h-32v-32c0.001-4.419-3.581-8.001-8-8.002
			c-0.413,0-0.826,0.032-1.234,0.096l-15.328,2.398c-8.004,0.508-14.904-5.569-15.411-13.573
			c-0.508-8.004,5.569-14.904,13.573-15.411c0.612-0.039,1.226-0.039,1.838,0l15.328,2.398c4.366,0.681,8.458-2.306,9.139-6.672
			c0.064-0.409,0.096-0.821,0.096-1.235v-32h128V344z"/>
	</g>
</g>
<g>
	<g>
		<path d="M294.295,110.102c0.378-0.014,0.757-0.014,1.135,0l15.316,2.43c4.359,0.696,8.457-2.273,9.154-6.632
			c0.067-0.419,0.1-0.843,0.1-1.267V64c0.001-4.417-3.579-7.999-7.996-8c-0.001,0-0.003,0-0.004,0H168
			c-4.417-0.001-7.999,3.579-8,7.996c0,0.001,0,0.003,0,0.004v40.633c-0.003,4.414,3.573,7.995,7.987,7.999
			c0.424,0,0.848-0.033,1.267-0.1l15.316-2.43c8.202-0.313,15.106,6.082,15.419,14.284c0.313,8.202-6.082,15.106-14.284,15.419
			c-0.378,0.014-0.757,0.014-1.135,0l-15.316-2.43c-4.359-0.696-8.457,2.273-9.154,6.632c-0.067,0.419-0.1,0.843-0.1,1.267V184
			c-0.001,4.417,3.579,7.999,7.996,8c0.001,0,0.003,0,0.004,0h40v9.141c0.642,17.673,15.49,31.479,33.163,30.837
			c16.772-0.609,30.228-14.065,30.837-30.837V192h40c4.417,0.001,7.999-3.579,8-7.996c0-0.001,0-0.003,0-0.004v-38.727
			c0.003-4.414-3.573-7.995-7.987-7.999c-0.424,0-0.848,0.033-1.267,0.1l-15.316,2.43c-8.202,0.313-15.106-6.082-15.419-14.284
			C279.697,117.318,286.092,110.415,294.295,110.102z M293.742,155.812c0.752,0.028,1.505,0.028,2.258,0
			c0.42,0.001,0.84-0.033,1.254-0.102l6.746-1.07V176h-40c-4.417-0.001-7.999,3.579-8,7.996c0,0.001,0,0.003,0,0.004v17.141
			c-0.654,8.837-8.348,15.47-17.184,14.816c-7.927-0.587-14.229-6.889-14.816-14.816V184c0.001-4.417-3.579-7.999-7.996-8
			c-0.001,0-0.003,0-0.004,0h-40v-21.359l6.746,1.07c0.414,0.069,0.834,0.103,1.254,0.102c17.043,0.623,31.365-12.687,31.988-29.731
			c0.623-17.043-12.687-31.365-29.731-31.988c-0.752-0.028-1.505-0.028-2.258,0c-0.42-0.001-0.84,0.033-1.254,0.102L176,95.266V72
			h128v23.266l-6.746-1.07c-0.414-0.069-0.834-0.103-1.254-0.102c-17.043-0.623-31.365,12.687-31.988,29.73
			S276.699,155.189,293.742,155.812z"/>
	</g>
</g>
<g>
	<g>
		<rect x="232" width="16" height="40"/>
	</g>
</g>
<g>
	<g>
		<rect x="125.775" y="15.949" transform="matrix(0.7538 -0.6571 0.6571 0.7538 10.4493 96.3315)" width="16" height="36.544"/>
	</g>
</g>
<g>
	<g>
		<rect x="326.767" y="27.984" transform="matrix(0.754 -0.6568 0.6568 0.754 61.2332 235.4859)" width="36.544" height="16"/>
	</g>
</g>
<g>
	<g>
		<rect x="104" y="120" width="40" height="16"/>
	</g>
</g>
<g>
	<g>
		<rect x="336" y="120" width="40" height="16"/>
	</g>
</g>
<g>
</g>
<g>
</g>
<g>
</g>
<g>
</g>
<g>
</g>
<g>
</g>
<g>
</g>
<g>
</g>
<g>
</g>
<g>
</g>
<g>
</g>
<g>
</g>
<g>
</g>
<g>
</g>
<g>
</g>
</svg>
