<svg height="512pt" viewBox="0 0 512 512.0003" width="512pt" xmlns="http://www.w3.org/2000/svg"><path d="m511.992188 106c0-17.371094-14.132813-31.5-31.503907-31.5l-195.242187.007812 49.144531-62.367187c2.5625-3.25 2.003906-7.96875-1.25-10.53125s-7.96875-2.003906-10.53125 1.25l-56.464844 71.648437h-20.300781l-56.453125-71.648437c-2.5625-3.253906-7.28125-3.8125-10.53125-1.25-3.253906 2.5625-3.8125 7.277344-1.25 10.53125l49.140625 62.367187-195.25.007813c-17.371094 0-31.5 14.128906-31.5 31.5v21.984375c0 4.140625 3.359375 7.5 7.5 7.5s7.5-3.359375 7.5-7.5v-21.984375c0-4.410156 1.714844-8.550781 4.832031-11.667969 3.117188-3.117187 7.261719-4.832031 11.667969-4.832031 9.773438 0 437.054688-.015625 448.992188-.015625 9.097656 0 16.5 7.402344 16.5 16.5l.007812 299.984375c0 4.410156-1.714844 8.554687-4.832031 11.667969-3.117188 3.117187-7.261719 4.832031-11.667969 4.832031l-448.992188.015625c-9.097656 0-16.5-7.402344-16.5-16.5l-.003906-246.5c0-4.140625-3.359375-7.5-7.5-7.5-4.144531 0-7.49999975 3.359375-7.49999975 7.5l.00390625 246.5c0 17.371094 14.1328125 31.5 31.5039065 31.5l140.988281-.003906v29.503906h-26.5c-12.40625 0-22.5 10.09375-22.5 22.5s10.09375 22.5 22.5 22.5h45.667969c4.140625 0 7.5-3.359375 7.5-7.5s-3.359375-7.5-7.5-7.5h-45.667969c-4.136719 0-7.5-3.363281-7.5-7.5s3.363281-7.5 7.5-7.5h220c4.136719 0 7.5 3.363281 7.5 7.5s-3.363281 7.5-7.5 7.5h-142c-4.140625 0-7.5 3.359375-7.5 7.5s3.359375 7.5 7.5 7.5h142c12.40625 0 22.5-10.09375 22.5-22.5s-10.09375-22.5-22.5-22.5h-26.5v-29.507812l141-.003907c17.371094 0 31.5-14.132812 31.5-31.503906zm-324.492188 361v-29.5h137v29.5zm0 0"/><path d="m467 352c0 4.144531 3.355469 7.5 7.5 7.5 4.140625 0 7.5-3.359375 7.5-7.5l-.007812-236c0-6.339844-5.160157-11.5-11.5-11.5l-428.992188.015625c-6.339844 0-11.5 5.15625-11.5 11.5l.007812 279.984375c0 6.339844 5.160157 11.5 11.5 11.5l428.992188-.015625c6.339844 0 11.5-5.15625 11.5-11.5v-11.984375c0-4.140625-3.359375-7.5-7.5-7.5s-7.5 3.359375-7.5 7.5v8.484375l-421.992188.015625-.007812-272.984375 421.992188-.015625zm0 0"/><path d="m232.777344 198.621094c-4.042969-2.617188-9.175782-2.816406-13.402344-.515625-4.242188 2.304687-6.875 6.738281-6.875 11.566406v78.65625c0 4.832031 2.632812 9.265625 6.875 11.570313 4.253906 2.3125 9.386719 2.082031 13.402344-.515626l60.71875-39.328124c3.761718-2.4375 6.003906-6.570313 6.003906-11.054688s-2.242188-8.617188-6.003906-11.054688zm-5.277344 86.308594v-71.855469l55.46875 35.925781zm0 0"/></svg>